<?xml version="1.0" encoding="UTF-8"?>
<svg width="180px" height="180px" viewBox="0 0 180 180" version="1.1" xmlns="http://www.w3.org/2000/svg" xmlns:xlink="http://www.w3.org/1999/xlink">
    <!-- Generator: Sketch 57.1 (83088) - https://sketch.com -->
    <title>Atoms/Ilustrations /Supportive /08</title>
    <desc>Created with Sketch.</desc>
    <g id="Atoms/Ilustrations-/Supportive-/08" stroke="none" stroke-width="1" fill="none" fill-rule="evenodd">
        <g id="Ilustrations-/-05" transform="translate(16.000000, 16.000000)">
            <circle id="oval-bg" fill="#F6F7F9" cx="74.5" cy="74.5" r="74.5"></circle>
            <path d="M50.8715571,51.7312939 C53.0071946,48.4718433 53.0071946,48.4718433 54.9136756,45.5621359 C59.1752294,39.0580714 59.1752294,39.0580714 65.8719569,28.8373986 C68.7762633,24.404791 74.7240073,23.1658581 79.1566149,26.0701645 C80.2593326,26.7926805 81.201333,27.7346809 81.923849,28.8373986 L122.726448,91.1111003 C125.630754,95.5437079 124.391821,101.491452 119.959214,104.395758 C118.396477,105.419685 116.568809,105.965116 114.700502,105.965116 C109.423079,105.965116 109.423079,105.965116 106.453125,105.965116 C100.857601,105.965116 100.857601,105.965116 97.3261719,105.965116 C91.2212825,105.965116 91.2212825,105.965116 87.6967705,105.965116 C87.0846366,105.965116 87.0846366,105.965116 86.4589844,105.965116 C84.5212526,105.965116 84.5212526,105.965116 82.2449448,105.965116 C79.2636303,105.965116 79.2636303,105.965116 77.0429688,105.965116 C59.9522103,105.965116 59.9522103,105.965116 33.0953041,105.965116 C27.795964,105.965116 23.5,101.669152 23.5,96.3698122 C23.5,94.5015046 24.045431,92.6738371 25.0693581,91.1111003 C42.3025812,64.8094276 42.3025812,64.8094276 50.8715571,51.7312939 Z" id="BG" stroke="#FFFFFF" stroke-width="5" stroke-linecap="round" stroke-linejoin="round"></path>
            <path d="M57.0047885,46.9322623 C59.4399622,43.215654 63.0927226,37.6407416 67.9630699,30.2075251 C70.1106764,26.9298073 74.5087707,26.013671 77.7864885,28.1612775 C78.6018995,28.6955462 79.2984673,29.392114 79.832736,30.2075251 L120.635335,92.4812267 C122.782941,95.7589445 121.866805,100.157039 118.589087,102.304645 M114.700502,103.465116 C110.797642,103.465116 108.048516,103.465116 106.453125,103.465116 M97.3261719,103.465116 C91.5398731,103.465116 89.3081022,103.465116 86.4589844,103.465116 M77.0429688,103.465116 C67.2768211,103.465116 52.6275995,103.465116 33.0953041,103.465116 C29.1766759,103.465116 26,100.28844 26,96.3698122 C26,94.9882812 26.4033222,93.6368017 27.1604711,92.4812267 C40.0933277,72.7428551 48.6940607,59.616253 52.9626701,53.1014203" id="Rectangle" stroke="#BDC4D7" stroke-width="3" stroke-linecap="round" stroke-linejoin="round"></path>
            <path d="M76.4642078,32.3810865 C76.5834192,32.5126511 76.7356532,32.6961404 76.905962,32.9104145 L41.5528603,86.8692946 C40.8735087,87.906134 40.5116279,89.1187487 40.5116279,90.3583271 C40.5116279,93.8743153 43.3618996,96.724587 46.8778879,96.724587 L46.8778879,96.724587 L116.127303,96.7254717 C115.703074,98.0833151 114.82343,99.3079776 113.540654,100.148471 C112.849427,100.601372 87.4010408,100.601372 37.1954942,100.148471 C31.7152071,100.148471 29.839117,100.148471 29.2946039,96.0256177 C29.1317713,94.7927088 31.9074034,91.4968684 32.5867551,90.4600291 L69.6798692,33.6233513 C71.6068086,30.6824198 74.4417696,30.1490734 76.4642078,32.3810865 Z" id="Combined-Shape" fill="#FFFFFF" opacity="0.65"></path>
            <path d="M71.6798692,32.6233513 C73.6068086,29.6824198 76.4417696,29.1490734 78.4642078,31.3810865 C79.018595,31.992922 80.2871538,33.7277191 80.7665263,34.4593465 L117.376649,90.3344109 C119.303588,93.2753424 118.481585,97.2215315 115.540654,99.1484709 C114.849427,99.601372 100.229166,77.4263321 71.6798692,32.6233513 Z" id="Rectangle" fill-opacity="0.2" fill="#1B2733" opacity="0.15"></path>
            <g id="exclamation-icon" transform="translate(69.534884, 50.441860)" fill="#AAB4CA">
                <path d="M4.96124031,30.1643411 C7.1532542,30.1643411 8.93023256,31.9413194 8.93023256,34.1333333 C8.93023256,36.3253472 7.1532542,38.1023256 4.96124031,38.1023256 C2.76922642,38.1023256 0.992248062,36.3253472 0.992248062,34.1333333 C0.992248062,31.9413194 2.76922642,30.1643411 4.96124031,30.1643411 Z M5.54194572,-4.72863212e-17 C7.19879997,5.36532911e-16 8.54194572,1.34314575 8.54194572,3 C8.54194572,3.06146579 8.5400567,3.12291707 8.53628133,3.18426681 L7.29091002,23.4215506 C7.20871301,24.757252 6.10147207,25.7984496 4.76324396,25.7984496 C3.42501586,25.7984496 2.31777492,24.757252 2.23557791,23.4215506 L0.990206597,3.18426681 C0.888438849,1.53054091 2.14654951,0.107432138 3.8002754,0.00566439023 C3.86162514,0.00188902176 3.92307641,-9.24173658e-16 3.98454221,-4.72863212e-17 L5.54194572,-4.72863212e-17 Z" id="Combined-Shape"></path>
            </g>
        </g>
    </g>
</svg>